<?xml version="1.0" standalone="no"?>
<!DOCTYPE svg PUBLIC "-//W3C//DTD SVG 20010904//EN"
 "http://www.w3.org/TR/2001/REC-SVG-20010904/DTD/svg10.dtd">

<svg xmlns="http://www.w3.org/2000/svg" width="107.000000pt" height="107.000000pt" viewBox="0 0 742 742" version="1.1"><path d="M 579.024 353.471 C 577.999 354.706, 577.999 355.294, 579.024 356.529 C 580.064 357.782, 582.567 358.007, 592.896 357.779 L 605.500 357.500 605.500 355 L 605.500 352.500 592.896 352.221 C 582.567 351.993, 580.064 352.218, 579.024 353.471 M 557.741 441.429 C 553.784 442.841, 552.205 443.859, 547.798 447.841 L 545.096 450.282 563.214 469.141 C 573.179 479.513, 581.844 488, 582.470 488 C 584.097 488, 589.458 482.117, 591.582 478 C 594.382 472.575, 594.166 460.780, 591.160 455 C 587.881 448.692, 584.303 445.127, 578.500 442.383 C 572.741 439.661, 563.842 439.252, 557.741 441.429" stroke="none" fill="#fbfbf3" fill-rule="evenodd"/><path d="M 323 143.465 C 294.920 147.579, 270.557 156.764, 248.035 171.727 C 234.057 181.014, 213.048 201.396, 205.493 213 C 200.012 221.419, 195.387 233.610, 194.512 241.944 C 193.381 252.718, 192.455 254.550, 185.214 260.347 C 153.624 285.635, 137.311 319.560, 135.372 364 C 133.805 399.915, 141.968 431.609, 159.618 458.132 C 166.216 468.048, 185.155 487.361, 194.295 493.496 C 201.363 498.239, 201.951 498.934, 205.961 507.260 C 215.068 526.172, 230.860 543.343, 252.500 557.860 C 312.303 597.978, 411.671 601.688, 478 566.279 C 492.372 558.607, 504.032 550.026, 515.030 539.029 C 520.822 533.238, 526.650 526.403, 527.981 523.840 L 530.401 519.180 523.509 505.090 C 519.718 497.340, 516.469 491, 516.290 491 C 516.111 491, 511.585 494.870, 506.232 499.600 C 486.578 516.969, 460.388 531.968, 436 539.822 C 368.795 561.466, 296.741 547.072, 241.731 501.014 C 217.795 480.974, 197.738 450.402, 186.540 416.890 C 179.588 396.086, 177.656 383.559, 177.608 359 C 177.585 346.971, 178.098 335.194, 178.849 330.500 C 187.063 279.169, 213.279 235.213, 253.354 205.575 C 310.636 163.214, 389.024 154.407, 454.058 183.026 C 487.488 197.737, 516.200 221.996, 536.286 252.500 C 547.831 270.035, 558.947 294.795, 564.042 314.328 L 566.344 323.156 572.050 322.494 C 575.188 322.130, 583.644 321.511, 590.843 321.118 C 598.041 320.725, 604.205 320.128, 604.541 319.792 C 605.412 318.922, 600.735 301.894, 596.446 290.318 C 584.442 257.918, 562.375 231.303, 540.632 223 C 537.091 221.648, 536.390 220.753, 533.520 213.923 C 527.170 198.810, 516.532 186.051, 499.726 173.391 C 477.495 156.644, 450.533 147.187, 428.095 148.265 C 416.092 148.842, 409.273 150.853, 400.886 156.291 C 397.014 158.802, 393.921 159.953, 389.882 160.385 L 384.264 160.986 376.575 154.594 C 362.689 143.049, 347.445 139.883, 323 143.465 M 349 191.505 C 321.647 195.245, 298.709 203.967, 275.500 219.451 C 237.006 245.134, 212.700 281.045, 203.760 325.443 C 201.875 334.806, 201.531 339.795, 201.517 358 C 201.502 376.458, 201.822 381.089, 203.776 390.728 C 210.991 426.321, 229.294 457.546, 257.360 482.143 C 293.455 513.777, 339.762 529.101, 387.349 525.160 C 412.705 523.059, 430.727 518.214, 451.500 507.911 C 467.019 500.215, 479.778 491.082, 493.398 477.920 L 504.346 467.341 491.762 442.920 C 484.840 429.489, 472.169 405, 463.603 388.500 C 455.036 372, 448.022 357.912, 448.014 357.194 C 447.996 355.520, 453.732 353.008, 472.730 346.372 C 492.290 339.540, 515.590 332.793, 530.472 329.652 C 536.892 328.297, 542.328 327.006, 542.551 326.782 C 542.774 326.559, 541.880 322.354, 540.564 317.438 C 532.238 286.332, 516.780 261.339, 489.984 235.663 C 463.545 210.327, 431.173 195.363, 393.459 191.043 C 381.565 189.680, 360.765 189.896, 349 191.505 M 287.870 260.550 C 275.286 264.465, 267.827 274.146, 267.172 287.416 C 266.513 300.767, 272.701 311.346, 284.187 316.507 L 290.500 319.343 316 319.421 L 341.500 319.500 342 380 C 342.547 446.203, 342.295 443.454, 348.565 451.674 C 353.652 458.344, 367.227 463.799, 375.382 462.450 C 387.547 460.438, 394.978 455.376, 399.369 446.109 L 402.500 439.500 402.801 379.812 L 403.101 320.124 428.301 319.812 L 453.500 319.500 459.497 316.692 C 467.298 313.040, 469.661 310.760, 473.097 303.568 C 476.954 295.498, 477.532 290.633, 475.558 282.887 C 473.117 273.313, 468.554 267.119, 460.877 262.957 L 454.500 259.500 373.500 259.305 C 305.408 259.141, 291.762 259.340, 287.870 260.550 M 586 344.675 C 571.781 346.117, 555.314 348.553, 542.958 351.044 C 528.536 353.951, 500.400 361.267, 499.260 362.407 C 498.934 362.733, 525.578 363, 558.469 363 L 618.272 363 617.673 358.750 C 617.344 356.413, 616.366 352.137, 615.499 349.250 L 613.923 344 601.711 344.160 C 594.995 344.248, 587.925 344.480, 586 344.675 M 579.024 353.471 C 577.999 354.706, 577.999 355.294, 579.024 356.529 C 580.064 357.782, 582.567 358.007, 592.896 357.779 L 605.500 357.500 605.500 355 L 605.500 352.500 592.896 352.221 C 582.567 351.993, 580.064 352.218, 579.024 353.471 M 519.096 422.750 C 532.416 436.913, 543.670 448.904, 544.106 449.399 C 544.549 449.902, 546.465 448.921, 548.462 447.167 C 553.996 442.309, 557.912 440.716, 565.540 440.221 C 577.173 439.466, 585.627 444.342, 591.163 455 C 593.029 458.593, 593.488 461.012, 593.441 467 C 593.373 475.675, 591.228 480.837, 585.660 485.726 L 582.201 488.762 587.959 494.459 L 593.717 500.157 598.245 491.328 C 605.772 476.653, 611.916 454.691, 612.317 441.024 L 612.500 434.789 554.500 415.897 C 522.600 405.507, 496.135 397.004, 495.689 397.003 C 495.243 397.001, 505.776 408.587, 519.096 422.750" stroke="none" fill="#fb9b19" fill-rule="evenodd"/></svg>
