<?xml version="1.0" encoding="UTF-8" standalone="no"?>
<!DOCTYPE svg PUBLIC "-//W3C//DTD SVG 1.1//EN" "http://www.w3.org/Graphics/SVG/1.1/DTD/svg11.dtd">
<?xml version="1.0" encoding="UTF-8"?>
<svg version="1.1" viewBox="0 0 1600 1200" width="54" height="54" xmlns="http://www.w3.org/2000/svg">
<path transform="translate(0)" d="m0 0h1600v1200h-1600v-1200z" fill="#000101"/>
<path transform="translate(795 372)" d="m0 0c0.749 6.85e-4 1.5 0.00137 2.27 0.00208 23.1 0.0696 23.1 0.0696 27.4 2.25 1.33 0.262 2.66 0.484 4 0.684 1.2 0.183 1.2 0.183 2.42 0.369 0.85 0.127 1.7 0.254 2.58 0.385 18.7 2.89 18.7 2.89 26 5.84 2.98 1.07 6.03 1.63 9.14 2.2 1.88 0.527 1.88 0.527 3.88 2.53 1.5 0.517 3.03 0.967 4.56 1.38 22.8 6.57 43.4 21.7 61.4 36.6 0.963 0.793 0.963 0.793 1.95 1.6 10.4 8.82 19.7 18.7 28.1 29.4 0.652 0.785 1.3 1.57 1.98 2.38 7.92 9.57 14.8 19.9 20.6 31 1.56 2.9 3.27 5.67 4.99 8.48 3.79 6.43 6.1 13.1 8.44 20.2 0.512 1.36 1.03 2.71 1.56 4.06 1.71 4.51 3.06 9.13 4.45 13.7 0.851 2.76 1.77 5.47 2.73 8.19 1.06 3.1 1.57 5.69 1.25 9-3.16 1.81-5.84 2.38-9.44 2.81-6.24 0.885-12.3 2.21-18.4 3.69-1.34 0.321-1.34 0.321-2.7 0.648-14 3.4-27.7 7.91-41.4 12.3-5.27 1.68-10.5 3.31-15.8 4.87-5.16 1.59-10.1 3.65-15.1 5.68-3.98 1.61-7.99 3.01-12.1 4.34-2.37 0.789-4.68 1.69-6.98 2.66 1.87 13.1 9.87 24.8 16.3 36.2 2.8 5 5.33 10.1 7.71 15.3 3.83 8.38 8.27 16.4 12.8 24.4 4.89 8.73 9.47 17.6 13.9 26.6 3.54 7.14 7.26 14.2 11 21.2 1.46 2.77 2.89 5.54 4.3 8.33 0.498 0.98 0.997 1.96 1.51 2.97 0.467 0.962 0.934 1.92 1.42 2.92 0.423 0.862 0.846 1.72 1.28 2.61 0.922 2.91 0.63 4.6-0.208 7.5-0.99 0.33-1.98 0.66-3 1-0.289 0.578-0.578 1.16-0.875 1.75-1.52 3.04-3.61 4.99-6.12 7.25h-2c-0.34 0.835-0.34 0.835-0.688 1.69-2.8 4.93-6.15 7.3-11.3 9.31-0.33 0.99-0.66 1.98-1 3-2.15 1.8-2.15 1.8-4.94 3.75-1.49 1.05-1.49 1.05-3.01 2.12-1.01 0.701-2.02 1.4-3.05 2.12-0.905 0.639-1.81 1.28-2.74 1.94-2.41 1.7-4.83 3.39-7.26 5.06-0.918 0.636-1.84 1.27-2.78 1.93-3.7 2.39-7.51 4.47-11.4 6.51-0.752 0.395-1.5 0.791-2.28 1.2-12.7 6.62-25.9 12.1-39.5 16.4-1.02 0.33-2.05 0.66-3.1 1-7.84 2.41-15.4 3.75-23.5 4.61-2.62 0.304-4.87 0.745-7.4 1.39-8.98 1.97-17.8 2.28-26.9 2.21-2.24-0.0181-4.48-0.0205-6.73-0.0203-7.56-0.0173-15.1-0.193-22.7-0.572-1.05-0.0452-1.05-0.0452-2.12-0.0913-3.93-0.225-6.99-0.934-10.6-2.52-1.88-0.264-3.77-0.523-5.66-0.73-9.09-1.05-17.8-3.04-26.5-5.65l-3.08-0.883c-8.41-2.47-16.1-5.86-23.9-9.82-1.66-0.813-3.36-1.53-5.07-2.23-10.9-4.63-21-11.1-30.8-17.7-1.02-0.679-2.05-1.36-3.11-2.06-5.17-3.51-5.17-3.51-6.89-4.94v-2c-0.695-0.227-1.39-0.454-2.11-0.688-3.53-1.6-6.28-3.82-9.21-6.31-0.55-0.451-1.1-0.902-1.67-1.37-1.38-1.16-2.71-2.39-4.02-3.63v-2c-0.639-0.268-1.28-0.536-1.94-0.812-2.06-1.19-2.06-1.19-3.06-4.19l-1.72-0.844c-3.19-1.62-5.33-4.05-7.71-6.66-0.518-0.565-1.04-1.13-1.57-1.71-6.66-7.43-12.4-15.6-18-23.8-1.09-1.6-1.09-1.6-2.21-3.23-9.91-15.3-17.3-32.4-22.8-49.8-0.291-0.857-0.583-1.71-0.883-2.6-0.799-2.45-1.48-4.9-2.12-7.4-0.317-1.23-0.634-2.47-0.961-3.74-5.61-23.3-6.95-47.4-5.04-71.3 0.0635-0.876 0.127-1.75 0.192-2.65 0.775-10.4 2.43-20.2 5.23-30.2 0.639-2.35 1.23-4.7 1.81-7.07 0.423-1.69 0.846-3.38 1.27-5.06 0.189-0.777 0.379-1.55 0.573-2.36 1.17-4.56 2.73-8.55 4.92-12.7 1.6-3.09 2.9-6.3 4.25-9.5 4.78-11.1 10.1-21.6 17.3-31.4 1.8-2.56 3.1-5.28 4.46-8.09 0.981-1.02 1.98-2.02 3-3 1.01-1.14 2.01-2.28 3-3.44 0.521-0.608 1.04-1.22 1.58-1.84 1.11-1.34 2.16-2.74 3.17-4.16 0.619-0.773 0.619-0.773 1.25-1.56h2c0.141-0.893 0.141-0.893 0.285-1.8 0.882-2.71 1.94-3.55 4.15-5.32 3.42-2.85 6.57-5.83 9.69-9 9.25-9.33 9.25-9.33 13.9-10.9 1.36-1.31 2.69-2.65 4-4 3.53-2.97 7.18-5.43 11.1-7.81 4.26-2.58 8.46-5.21 12.6-7.94 3.84-2.45 7.63-4.48 11.8-6.23 2.85-1.2 5.62-2.55 8.41-3.89 7.81-3.61 15.8-6.41 24-9.12 1.65-0.557 1.65-0.557 3.34-1.12 22.8-7.36 46.1-10.2 70-10.1z" fill="#FBB115"/>
<path transform="translate(749 310)" d="m0 0c1.1-0.0122 2.21-0.0245 3.34-0.0371 15.9-0.028 33.6 3.19 45.9 14.2v2c0.835 0.371 0.835 0.371 1.69 0.75 2.31 1.25 2.31 1.25 4.38 3.31 5.4 3.56 11.6 3.35 17.8 2.25 3.29-1.38 5.39-3.04 8.12-5.31 2.6-1.48 5.29-2.73 8-4 0.984-0.53 0.984-0.53 1.99-1.07 17.2-8.73 43.2-6.43 61.1-0.68 1.63 0.574 3.25 1.16 4.88 1.75 1.16 0.411 2.33 0.822 3.52 1.25 11.8 4.26 23.8 9.06 34.5 15.8 1.21 0.729 1.21 0.729 2.44 1.47 27.9 17.3 48.1 40 60.6 70.5v2c1.26 0.206 2.52 0.413 3.81 0.625 18.4 4.14 36 21 46.2 36.4v2h2c1.11 1.4 1.11 1.4 2.32 3.38 0.674 1.1 0.674 1.1 1.36 2.21 0.715 1.19 0.715 1.19 1.44 2.41 0.491 0.813 0.981 1.63 1.49 2.46 6.8 11.4 12.5 23.2 17.4 35.5 0.358 0.861 0.717 1.72 1.09 2.61 2.05 4.95 3.75 9.91 5.2 15.1 0.677 2.34 0.677 2.34 1.66 4.61 1.37 3.53 2.31 7.11 3.24 10.8 0.19 0.707 0.38 1.41 0.576 2.14 0.934 3.67 1.35 6.18 0.236 9.79-9.33 0.845-18.7 1.45-28 1.98-1.63 0.0942-3.26 0.191-4.89 0.291-2.39 0.146-4.77 0.284-7.16 0.419-0.724 0.0458-1.45 0.0915-2.19 0.139-3.76 0.204-7.09 0.112-10.7-0.834-0.193-0.869-0.387-1.74-0.586-2.63-0.26-1.15-0.521-2.3-0.789-3.49-0.383-1.71-0.383-1.71-0.773-3.45-0.799-3.22-1.77-6.3-2.85-9.43-0.486-1.6-0.966-3.21-1.44-4.81-3.55-11.8-7.85-23.2-13.6-34.2-0.454-0.928-0.908-1.86-1.38-2.81-11.1-21.8-24.7-42.4-41.6-60.2-1.19-1.37-2.38-2.74-3.56-4.12-25-28.6-62-52.8-98.8-63.1-2.32-0.688-4.61-1.43-6.9-2.21-17-5.69-34.1-8.17-51.8-10.2-2.88-0.401-2.88-0.401-5.88-1.4-2.57-0.109-5.1-0.164-7.67-0.168-0.754-0.00333-1.51-0.00666-2.28-0.0101-1.6-0.00506-3.19-0.00741-4.79-0.00725-2.42-0.00217-4.84-0.0203-7.26-0.0393-1.56-0.00294-3.11-0.00492-4.67-0.00586-0.715-0.00719-1.43-0.0144-2.17-0.0218-5.03 0.0224-9.31 0.949-14.2 2.25-2.42 0.287-2.42 0.287-4.39 0.344-0.728 0.0296-1.46 0.0593-2.21 0.0898-1.49 0.0449-2.99 0.0891-4.48 0.133-3.79 0.156-5.69 0.283-8.92 2.43-2.08 0.471-2.08 0.471-4.46 0.781-0.866 0.12-1.73 0.24-2.62 0.363-1.35 0.176-1.35 0.176-2.73 0.355-5.63 0.741-10.8 1.53-16.2 3.5-1.81 0.492-3.62 0.971-5.44 1.44-3.66 0.987-7.07 2.1-10.5 3.7-2.77 1.17-5.62 2.09-8.48 3.05-7.53 2.66-14.5 6.12-21.6 9.8-1.94 0.995-3.89 1.96-5.86 2.91-6.1 2.96-11.7 5.98-17.1 10.1-1.66 1.01-3.33 2.01-5 3-2.28 1.56-4.55 3.12-6.82 4.7-2.11 1.26-3.83 1.72-6.18 2.3-0.684 1.32-1.35 2.66-2 4-1.32 0.702-2.65 1.37-4 2-0.701 0.701-1.4 1.4-2.12 2.12-0.619 0.619-1.24 1.24-1.88 1.88h-2c-0.33 0.99-0.66 1.98-1 3-1.49 1.29-3.04 2.51-4.62 3.69-4.09 3.17-7.45 6.43-10.7 10.4-1.56 1.83-3.2 3.45-4.95 5.1-6.06 5.95-11.3 13.1-15.9 20.2-0.602 0.857-1.2 1.71-1.82 2.6h-2c-0.266 0.736-0.531 1.47-0.805 2.23-1.18 2.74-2.52 4.72-4.32 7.08-4.46 6.22-7.71 12.9-11 19.8-0.778 1.63-1.57 3.26-2.37 4.89-2.8 5.87-4.79 11.8-6.53 18-1 2.97-2.38 5.27-3.99 7.95-0.693 2.36-0.693 2.36-1.06 4.69-0.723 4.1-0.723 4.1-2.94 6.31-0.408 2.15-0.73 4.32-1 6.5-0.778 6.28-0.778 6.28-3 8.5-0.524 2.48-0.524 2.48-0.781 5.38-0.12 1.07-0.24 2.13-0.363 3.23-0.117 1.12-0.235 2.24-0.355 3.39-0.232 2.21-0.471 4.42-0.719 6.62-0.102 0.982-0.205 1.96-0.311 2.98-0.471 2.4-0.471 2.4-2.47 4.4-0.122 2.64-0.139 5.18-0.0625 7.81 0.129 5.15 0.00871 10.2-0.453 15.3-0.61 7.36-0.447 14.6-0.172 22 0.0354 1.3 0.0709 2.6 0.107 3.94 0.0648 1.86 0.0648 1.86 0.131 3.76 0.0378 1.12 0.0756 2.23 0.115 3.38 0.146 3 0.146 3 2.33 5.8 0.379 1.97 0.379 1.97 0.562 4.2 0.0748 0.816 0.15 1.63 0.227 2.47 0.104 1.27 0.104 1.27 0.211 2.57 0.487 5.84 1.21 11.1 3 16.8 0.325 1.15 0.65 2.29 0.984 3.47 4.72 16.4 9.84 32.2 18.1 47.1 1.59 2.87 3.07 5.76 4.5 8.71 4.34 8.75 9.66 16.8 15.4 24.7 0.482 0.666 0.964 1.33 1.46 2.02 3.67 4.98 7.61 9.73 11.6 14.5 1.67 2.15 2.77 4.1 3.95 6.52 1.32 0.685 2.66 1.35 4 2 2.75 2.5 2.75 2.5 5 5v2c0.583 0.268 1.17 0.536 1.77 0.812 2.26 1.2 4.04 2.53 5.98 4.19 0.614 0.516 1.23 1.03 1.86 1.56 1.39 1.44 1.39 1.44 1.39 3.44 0.587 0.266 1.17 0.531 1.78 0.805 2.28 1.23 3.89 2.56 5.79 4.32 6.31 5.65 13.2 10.6 20.4 14.9 2.8 1.78 5.59 3.58 8.38 5.38 2.17 1.34 4.32 2.53 6.62 3.62v2c0.681 0.0825 1.36 0.165 2.06 0.25 2.95 0.752 5.12 1.95 7.71 3.5 7.64 4.28 15.8 7.63 24 10.7 2.6 0.972 5.2 1.96 7.79 2.97 4.91 1.84 9.92 3.25 15 4.66 1.36 0.384 1.36 0.384 2.75 0.775 1.77 0.499 3.54 0.995 5.31 1.49 1.99 0.565 3.97 1.17 5.95 1.79 4.23 1.09 8.4 1.54 12.7 1.95 8.44 0.812 8.44 0.812 10.7 1.94 2.03 0.224 4.08 0.393 6.12 0.535 1.25 0.087 2.5 0.174 3.78 0.264 1.31 0.087 2.62 0.174 3.98 0.264 1.27 0.0909 2.55 0.182 3.86 0.275 11 0.75 21.9 0.857 33 0.225 0.796-0.0393 1.59-0.0786 2.41-0.119 3.76 0.129 3.76 0.129 6.9-1.44 2-0.164 4-0.279 6-0.375 12.6-0.819 24.9-3.31 37-6.62 1.22-0.33 2.43-0.66 3.69-1 4.14-1.25 8.23-2.59 12.3-4 1.58-0.541 1.58-0.541 3.2-1.09 22.4-7.83 49.7-19.7 66.8-36.9 1.61-1.15 3.23-2.27 4.88-3.38 3.77-2.6 6.97-5.29 10.1-8.62 0.784-0.598 1.57-1.2 2.38-1.81 3.07-2.56 5.41-5.45 7.88-8.58 1.75-1.61 1.75-1.61 5.75-1.61 4.66 8.63 9.25 17.3 13.5 26.1 0.338 0.685 0.675 1.37 1.02 2.08 2.01 4.24 3.36 8.03 3.48 12.8-1.29 2.91-1.29 2.91-3.19 5.62-0.918 1.35-0.918 1.35-1.86 2.73-5.49 7.42-11.3 14.5-18.4 20.4-1.67 1.35-1.67 1.35-3.48 3.3-8.25 8-8.25 8-12.1 8-0.33 0.99-0.66 1.98-1 3-1.69 1.25-1.69 1.25-4 2.56-0.897 0.516-1.79 1.03-2.72 1.56-1.62 0.928-1.62 0.928-3.28 1.88-1.37 0.81-2.73 1.62-4.09 2.44-7.5 4.48-15 8.87-22.9 12.6-0.831 0.394-1.66 0.789-2.52 1.2-13.5 6.31-27.7 12.3-42.4 15.3-2.1 0.491-4.03 1.17-6.05 1.93-8.58 2.99-18 3.89-27 5.09-2.98 0.302-2.98 0.302-5.07 1.48-42.7 6.9-92.9 3.6-134-9.37-2.09-0.659-4.19-1.29-6.29-1.91-11.4-3.46-22.2-7.8-33-13-1.01-0.483-2.01-0.966-3.05-1.46-10.7-5.18-20.9-10.7-30.5-17.7-2.23-1.63-2.23-1.63-4.96-3.12-0.733-0.471-1.47-0.941-2.22-1.43v-2c-1.06-0.356-1.06-0.356-2.14-0.719-3.37-1.51-5.83-3.44-8.68-5.78-0.976-0.794-1.95-1.59-2.96-2.41-1.1-1.04-1.1-1.04-2.23-2.09v-2h-2c-1.37-1.36-1.37-1.36-3-3.31-2.93-3.47-5.96-6.81-9.06-10.1-4.19-4.59-7.66-9.3-10.9-14.6-0.632-0.9-1.26-1.8-1.91-2.73-2.86-4.49-4.93-9.23-7.09-14.1-1.93-4.23-4-7.59-7-11.2v-2c-1.09-0.4-1.09-0.4-2.21-0.809-28.3-12.1-52.7-45.9-64.8-73.2-0.3-0.67-0.601-1.34-0.91-2.03-11.5-27.1-16.3-56-16.3-85.3 0.00127-0.752 0.00254-1.5 0.00385-2.28 0.0886-27.6 3.48-54 15.2-79.3 0.498-1.17 0.995-2.34 1.51-3.54 7.27-16.9 17.2-33.6 30.5-46.5h2c0.398-0.901 0.398-0.901 0.805-1.82 1.96-3.57 5.04-5.68 8.2-8.18 0.715-0.567 1.43-1.13 2.17-1.72 5.54-4.28 5.54-4.28 7.83-4.28 0.33-0.99 0.66-1.98 1-3 2.06-0.688 2.06-0.688 4-1l0.551-3.19c0.665-3.83 1.35-7.66 2.03-11.5 0.261-1.46 0.518-2.93 0.771-4.39 2.91-16.9 9.17-29.9 19.1-43.7 1.54-2.14 1.54-2.14 2.53-4.33 1.08-2.08 2.28-3.3 3.98-4.9 1.09-1.27 2.17-2.54 3.25-3.81 2.84-3.27 5.8-6.08 9.14-8.83 1.8-1.48 1.8-1.48 4.05-3.8 5.66-5.66 11.8-11.2 18.6-15.6h2v-2c1.82-1.2 3.64-2.38 5.51-3.5 2.76-1.66 5.47-3.38 8.18-5.12 19.3-12.3 41.7-22.6 64.3-26.9 2.06-0.446 2.06-0.446 4.11-1.42 4.29-1.59 8.71-2.31 13.2-3.14 0.912-0.173 1.82-0.347 2.76-0.525 9.67-1.81 18.8-2.59 28.7-2.6z" fill="#FCB215"/>
<path transform="translate(694 463)" d="m0 0c1.3-0.0104 1.3-0.0104 2.62-0.021 2.88-0.0182 5.75-0.00803 8.63 0.00226 2.07-0.00706 4.14-0.0158 6.22-0.0261 5.61-0.0225 11.2-0.0196 16.8-0.0107 4.69 0.00512 9.38-0.00219 14.1-0.00947 11.1-0.017 22.1-0.0134 33.2 0.00329 11.4 0.0169 22.8 0.00109 34.2-0.0312 9.81-0.0267 19.6-0.034 29.4-0.0255 5.85 0.00492 11.7 0.00276 17.6-0.0178 5.5-0.0184 11-0.0123 16.5 0.0122 2.01 0.00499 4.03 0.00156 6.04-0.0111 19.4-0.113 19.4-0.113 28.6 5.65 0.88 0.51 1.76 1.02 2.67 1.55 6.82 4.25 11.7 13 14.3 20.5 1.52 6.85 2.46 13.1 1 20-0.156 0.788-0.312 1.58-0.473 2.39-2.53 9.87-8.38 18.2-17.1 23.5-3.36 1.52-6.67 2.22-10.3 2.75-2.12 0.226-2.12 0.226-4.07 1.32-1.97 0.115-3.93 0.167-5.9 0.189-1.24 0.0167-2.48 0.0334-3.75 0.0507-0.663 0.00668-1.33 0.0134-2.01 0.0202-2.07 0.021-4.14 0.048-6.21 0.0767-5.14 0.0699-10.3 0.129-15.4 0.189-4.35 0.0509-8.69 0.106-13 0.166-2.05 0.0267-4.09 0.0474-6.14 0.068-1.23 0.0167-2.47 0.0334-3.74 0.0507-1.09 0.0125-2.19 0.0251-3.31 0.038-2.41-0.125-2.41-0.125-3.46 1.15-0.105 1.94-0.138 3.89-0.145 5.83-0.0069 1.27-0.0138 2.53-0.0209 3.84-0.00272 1.42-0.00535 2.84-0.00792 4.25-0.0063 1.48-0.0131 2.97-0.0203 4.45-0.0147 3.2-0.0264 6.4-0.0359 9.61-0.0154 5.07-0.0394 10.1-0.0649 15.2-0.0713 14.4-0.131 28.8-0.182 43.2-0.0284 7.96-0.0638 15.9-0.107 23.9-0.0267 5.03-0.0447 10.1-0.056 15.1-0.00917 3.14-0.0265 6.29-0.0462 9.43-0.00743 1.45-0.0116 2.9-0.012 4.35-0.00763 13.9-1.37 23.8-11.2 34.1-8.5 8.12-18 10.2-29.5 10.9-8.03-0.365-15.3-4.36-21.6-9.16-0.969-0.681-1.94-1.36-2.94-2.06-8.81-7.67-11-16.7-12.1-27.9-0.261-5.03-0.311-10-0.319-15.1-0.00933-1.45-0.0195-2.9-0.0304-4.35-0.027-3.89-0.0424-7.78-0.0554-11.7-0.0158-4.08-0.0425-8.17-0.068-12.2-0.0466-7.71-0.0834-15.4-0.117-23.1-0.0384-8.79-0.0878-17.6-0.138-26.4-0.103-18.1-0.192-36.1-0.273-54.2-0.777-0.00587-1.55-0.0117-2.36-0.0178-7.37-0.0582-14.7-0.13-22.1-0.218-3.79-0.0445-7.57-0.0838-11.4-0.111-3.66-0.0262-7.33-0.0668-11-0.117-1.39-0.0165-2.78-0.0281-4.17-0.0344-14.6-0.0729-24.4-2.15-35-12.4-8.65-9.2-10.2-18.8-10-31.1 0.552-4.87 1.8-9.61 4-14 0.66-0.33 1.32-0.66 2-1 0.433-0.743 0.866-1.49 1.31-2.25 6.56-10.7 18.5-16.4 30.7-16.3z" fill="#000101"/>
<path transform="translate(749 310)" d="m0 0c1.1-0.0122 2.21-0.0245 3.34-0.0371 15.9-0.028 33.6 3.19 45.9 14.2v2c0.557 0.248 1.11 0.495 1.69 0.75 2.31 1.25 2.31 1.25 4.38 3.31 5.4 3.56 11.6 3.35 17.8 2.25 3.29-1.38 5.39-3.04 8.12-5.31 2.6-1.48 5.29-2.73 8-4 0.984-0.53 0.984-0.53 1.99-1.07 17.2-8.73 43.2-6.43 61.1-0.68 1.63 0.574 3.25 1.16 4.88 1.75 1.16 0.411 2.33 0.822 3.52 1.25 11.8 4.26 23.8 9.06 34.5 15.8 1.21 0.729 1.21 0.729 2.44 1.47 27.9 17.3 48.1 40 60.6 70.5v2c1.26 0.206 2.52 0.413 3.81 0.625 18.4 4.14 36 21 46.2 36.4v2h2c1.11 1.4 1.11 1.4 2.32 3.38 0.449 0.73 0.898 1.46 1.36 2.21 0.476 0.796 0.953 1.59 1.44 2.41 0.736 1.22 0.736 1.22 1.49 2.46 6.8 11.4 12.5 23.2 17.4 35.5 0.358 0.861 0.717 1.72 1.09 2.61 2.05 4.95 3.75 9.91 5.2 15.1 0.677 2.34 0.677 2.34 1.66 4.61 1.37 3.53 2.31 7.11 3.24 10.8 0.19 0.707 0.38 1.41 0.576 2.14 0.934 3.67 1.35 6.18 0.236 9.79-9.33 0.845-18.7 1.45-28 1.98-1.63 0.0942-3.26 0.191-4.89 0.291-2.39 0.146-4.77 0.284-7.16 0.419-0.724 0.0458-1.45 0.0915-2.19 0.139-3.76 0.204-7.09 0.112-10.7-0.834-0.193-0.869-0.387-1.74-0.586-2.63-0.26-1.15-0.521-2.3-0.789-3.49-0.383-1.71-0.383-1.71-0.773-3.45-0.799-3.22-1.77-6.3-2.85-9.43-0.486-1.6-0.966-3.21-1.44-4.81-3.55-11.8-7.85-23.2-13.6-34.2-0.454-0.928-0.908-1.86-1.38-2.81-11.1-21.8-24.7-42.4-41.6-60.2-1.19-1.37-2.38-2.74-3.56-4.12-25-28.6-62-52.8-98.8-63.1-2.32-0.688-4.61-1.43-6.9-2.21-17-5.69-34.1-8.17-51.8-10.2-2.88-0.401-2.88-0.401-5.88-1.4-2.57-0.109-5.1-0.164-7.67-0.168-0.754-0.00333-1.51-0.00666-2.28-0.0101-1.6-0.00506-3.19-0.00741-4.79-0.00725-2.42-0.00217-4.84-0.0203-7.26-0.0393-1.56-0.00294-3.11-0.00492-4.67-0.00586-0.715-0.00719-1.43-0.0144-2.17-0.0218-5.03 0.0224-9.31 0.949-14.2 2.25-2.42 0.287-2.42 0.287-4.39 0.344-0.728 0.0296-1.46 0.0593-2.21 0.0898-1.49 0.0449-2.99 0.0891-4.48 0.133-3.79 0.156-5.69 0.283-8.92 2.43-2.08 0.471-2.08 0.471-4.46 0.781-0.866 0.12-1.73 0.24-2.62 0.363-0.902 0.117-1.8 0.235-2.73 0.355-5.63 0.741-10.8 1.53-16.2 3.5-1.81 0.492-3.62 0.971-5.44 1.44-3.66 0.987-7.07 2.1-10.5 3.7-2.77 1.17-5.62 2.09-8.48 3.05-7.53 2.66-14.5 6.12-21.6 9.8-1.94 0.995-3.89 1.96-5.86 2.91-6.1 2.96-11.7 5.98-17.1 10.1-1.66 1.01-3.33 2.01-5 3-2.28 1.56-4.55 3.12-6.82 4.7-2.11 1.26-3.83 1.72-6.18 2.3-0.684 1.32-1.35 2.66-2 4-1.32 0.702-2.65 1.37-4 2-0.701 0.701-1.4 1.4-2.12 2.12-0.619 0.619-1.24 1.24-1.88 1.88h-2c-0.495 1.49-0.495 1.49-1 3-1.49 1.29-3.04 2.51-4.62 3.69-4.09 3.17-7.45 6.43-10.7 10.4-1.56 1.83-3.2 3.45-4.95 5.1-5.18 5.06-9.36 11-13.7 16.8-0.55-0.485-1.1-0.97-1.67-1.47-2.78-1.82-4.38-1.94-7.69-2.01-1.02-0.0309-2.03-0.0619-3.08-0.0938-1.05-0.018-2.11-0.0361-3.2-0.0547-2.1-0.0509-4.19-0.105-6.29-0.164-0.928-0.0176-1.86-0.0351-2.81-0.0532-2.27-0.158-2.27-0.158-4.27-1.16 0.576-16.1 9.3-30.1 18.5-42.8 1.54-2.14 1.54-2.14 2.53-4.33 1.08-2.08 2.28-3.3 3.98-4.9 1.09-1.27 2.17-2.54 3.25-3.81 2.84-3.27 5.8-6.08 9.14-8.83 1.8-1.48 1.8-1.48 4.05-3.8 5.66-5.66 11.8-11.2 18.6-15.6h2v-2c1.82-1.2 3.64-2.38 5.51-3.5 2.76-1.66 5.47-3.38 8.18-5.12 19.3-12.3 41.7-22.6 64.3-26.9 2.06-0.446 2.06-0.446 4.11-1.42 4.29-1.59 8.71-2.31 13.2-3.14 0.912-0.173 1.82-0.347 2.76-0.525 9.67-1.81 18.8-2.59 28.7-2.6z" fill="#F8732A"/>
<path transform="translate(642,429)" d="m0 0c0 3.49-0.653 4.28-2.62 7.06-2.78 4.03-5.33 8.15-7.82 12.4-1.54 2.55-3.16 5.02-4.8 7.5-3.26 5.1-6.16 10.4-9 15.7-0.637 1.18-0.637 1.18-1.29 2.39-2.4 4.57-4.28 9.06-5.82 14-0.816 2.54-1.87 4.94-2.96 7.38-7.11 17-10.8 34.5-13.7 52.6-0.181 1.07-0.362 2.14-0.549 3.24-0.555 4.62-0.633 9.15-0.655 13.8-0.00855 1.45-0.00855 1.45-0.0173 2.92-0.00942 2.04-0.016 4.08-0.0198 6.12-0.00959 3.05-0.0406 6.1-0.0723 9.15-0.203 37.7 10.8 75 31.3 107 0.353 0.561 0.707 1.12 1.07 1.7 7.4 11.7 16.2 21.5 25.9 31.3 0.601 0.619 1.2 1.24 1.82 1.88 3.62 3.69 7.3 6.95 11.4 10.1 0.554 0.42 1.11 0.839 1.68 1.27 1.68 1.27 3.38 2.53 5.07 3.79 1.54 1.14 1.54 1.14 3.11 2.31 10 7.37 20.7 13.3 31.9 18.7 1.18 0.584 1.18 0.584 2.38 1.18 27.9 13.3 57.4 18.1 88.1 18.1 1.14-0.00103 1.14-0.00103 2.3-0.00208 13 0.642 13 0.642 25.3-2.25 2-0.312 4.01-0.619 6.02-0.9 28.3-3.99 54.7-15.3 78-31.9 1.96-1.23 1.96-1.23 4.57-2.26 2.57-1.04 3.95-2.36 5.83-4.36 6.94-7.15 14.8-13.4 22.6-19.6 3.89-3.15 7.52-6.41 11-10 3.39 5.04 6.23 10.2 8.88 15.7 0.322 0.641 0.645 1.28 0.977 1.94 1.82 3.85 2.54 6.28 1.15 10.4-0.99 0.33-1.98 0.66-3 1-0.289 0.578-0.578 1.16-0.875 1.75-1.52 3.04-3.61 4.99-6.12 7.25h-2c-0.34 0.835-0.34 0.835-0.688 1.69-2.8 4.93-6.15 7.3-11.3 9.31-0.33 0.99-0.66 1.98-1 3-2.15 1.8-2.15 1.8-4.94 3.75l-3.01 2.12c-1.01 0.701-2.02 1.4-3.05 2.12-0.905 0.639-1.81 1.28-2.74 1.94-2.41 1.7-4.83 3.39-7.26 5.06-0.918 0.636-1.84 1.27-2.78 1.93-3.7 2.39-7.51 4.47-11.4 6.51-0.752 0.395-1.5 0.791-2.28 1.2-12.7 6.62-25.9 12.1-39.5 16.4-1.02 0.33-2.05 0.66-3.1 1-7.84 2.41-15.4 3.75-23.5 4.61-2.62 0.304-4.87 0.745-7.4 1.39-8.98 1.97-17.8 2.28-26.9 2.21-2.24-0.0181-4.48-0.0205-6.73-0.0203-7.56-0.0173-15.1-0.193-22.7-0.572-1.05-0.0452-1.05-0.0452-2.12-0.0913-3.93-0.225-6.99-0.934-10.6-2.52-1.88-0.264-3.77-0.523-5.66-0.73-9.09-1.05-17.8-3.04-26.5-5.65l-3.08-0.883c-8.41-2.47-16.1-5.86-23.9-9.82-1.66-0.813-3.36-1.53-5.07-2.23-10.9-4.63-21-11.1-30.8-17.7-1.02-0.679-2.05-1.36-3.11-2.06-5.17-3.51-5.17-3.51-6.89-4.94v-2c-0.695-0.227-1.39-0.454-2.11-0.688-3.53-1.6-6.28-3.82-9.21-6.31-0.55-0.451-1.1-0.902-1.67-1.37-1.38-1.16-2.71-2.39-4.02-3.63v-2c-0.639-0.268-1.28-0.536-1.94-0.812-2.06-1.19-2.06-1.19-3.06-4.19-0.568-0.278-1.14-0.557-1.72-0.844-3.19-1.62-5.33-4.05-7.71-6.66-0.518-0.565-1.04-1.13-1.57-1.71-6.66-7.43-12.4-15.6-18-23.8-1.09-1.6-1.09-1.6-2.21-3.23-9.91-15.3-17.3-32.4-22.8-49.8-0.291-0.857-0.583-1.71-0.883-2.6-0.799-2.45-1.48-4.9-2.12-7.4-0.317-1.23-0.634-2.47-0.961-3.74-5.61-23.3-6.95-47.4-5.04-71.3 0.0635-0.876 0.127-1.75 0.192-2.65 0.775-10.4 2.43-20.2 5.23-30.2 0.639-2.35 1.23-4.7 1.81-7.07 0.423-1.69 0.846-3.38 1.27-5.06 0.189-0.777 0.379-1.55 0.573-2.36 1.17-4.56 2.73-8.55 4.92-12.7 1.6-3.09 2.9-6.3 4.25-9.5 4.78-11.1 10.1-21.6 17.3-31.4 1.8-2.56 3.1-5.28 4.46-8.09 0.981-1.02 1.98-2.02 3-3 1.01-1.14 2.01-2.28 3-3.44 0.521-0.608 1.04-1.22 1.58-1.84 1.11-1.34 2.16-2.74 3.17-4.16 0.619-0.773 0.619-0.773 1.25-1.56h2c0.137-0.889 0.137-0.889 0.277-1.8 0.902-2.75 2.05-3.65 4.29-5.45 3.81-3.17 7.26-6.56 10.7-10.1 1.76-1.6 1.76-1.6 4.76-2.6z" fill="#F9742A"/>
<path transform="translate(559,493)" d="m0 0c1.65 3.29-0.0479 6.17-1.11 9.55-0.895 2.45-0.895 2.45-2.46 5.02-1.81 3.06-2.3 5.97-2.91 9.45-0.527 1.99-0.527 1.99-2.53 3.99-0.408 2.15-0.73 4.32-1 6.5-0.778 6.28-0.778 6.28-3 8.5-0.524 2.48-0.524 2.48-0.781 5.38-0.12 1.07-0.24 2.13-0.363 3.23-0.117 1.12-0.235 2.24-0.355 3.39-0.232 2.21-0.471 4.42-0.719 6.62-0.102 0.982-0.205 1.96-0.311 2.98-0.471 2.4-0.471 2.4-2.47 4.4-0.122 2.64-0.139 5.18-0.0625 7.81 0.129 5.15 0.00871 10.2-0.453 15.3-0.61 7.36-0.447 14.6-0.172 22 0.0532 1.95 0.0532 1.95 0.107 3.94 0.0432 1.24 0.0864 2.48 0.131 3.76 0.0378 1.12 0.0756 2.23 0.115 3.38 0.146 3 0.146 3 2.33 5.8 0.379 1.97 0.379 1.97 0.562 4.2 0.0748 0.816 0.15 1.63 0.227 2.47 0.104 1.27 0.104 1.27 0.211 2.57 0.487 5.84 1.21 11.1 3 16.8 0.325 1.15 0.65 2.29 0.984 3.47 4.72 16.4 9.84 32.2 18.1 47.1 1.59 2.87 3.07 5.76 4.5 8.71 4.34 8.75 9.66 16.8 15.4 24.7 0.482 0.666 0.964 1.33 1.46 2.02 3.67 4.98 7.61 9.73 11.6 14.5 1.67 2.15 2.77 4.1 3.95 6.52 1.32 0.685 2.66 1.35 4 2 2.75 2.5 2.75 2.5 5 5v2c0.583 0.268 1.17 0.536 1.77 0.812 2.26 1.2 4.04 2.53 5.98 4.19 0.614 0.516 1.23 1.03 1.86 1.56 1.39 1.44 1.39 1.44 1.39 3.44 0.587 0.266 1.17 0.531 1.78 0.805 2.28 1.23 3.89 2.56 5.79 4.32 6.31 5.65 13.2 10.6 20.4 14.9 2.8 1.78 5.59 3.58 8.38 5.38 2.17 1.34 4.32 2.53 6.62 3.62v2c0.681 0.0825 1.36 0.165 2.06 0.25 2.95 0.752 5.12 1.95 7.71 3.5 7.64 4.28 15.8 7.63 24 10.7 2.6 0.972 5.2 1.96 7.79 2.97 4.91 1.84 9.92 3.25 15 4.66 0.907 0.256 1.81 0.512 2.75 0.775 1.77 0.499 3.54 0.995 5.31 1.49 1.99 0.565 3.97 1.17 5.95 1.79 4.23 1.09 8.4 1.54 12.7 1.95 8.44 0.812 8.44 0.812 10.7 1.94 2.03 0.224 4.08 0.393 6.12 0.535 1.25 0.087 2.5 0.174 3.78 0.264 1.31 0.087 2.62 0.174 3.98 0.264 1.91 0.136 1.91 0.136 3.86 0.275 11 0.75 21.9 0.857 33 0.225 0.796-0.0393 1.59-0.0786 2.41-0.119 3.76 0.129 3.76 0.129 6.9-1.44 2-0.164 4-0.279 6-0.375 12.6-0.819 24.9-3.31 37-6.62 1.22-0.33 2.43-0.66 3.69-1 4.14-1.25 8.23-2.59 12.3-4 1.05-0.361 2.11-0.722 3.2-1.09 22.4-7.83 49.7-19.7 66.8-36.9 1.61-1.15 3.23-2.27 4.88-3.38 3.77-2.6 6.97-5.29 10.1-8.62 0.784-0.598 1.57-1.2 2.38-1.81 3.07-2.56 5.41-5.45 7.88-8.58 1.75-1.61 1.75-1.61 5.75-1.61 4.06 6.03 4.06 6.03 3.75 10.9-0.371 1.52-0.371 1.52-0.75 3.06h-3c-0.0722 1.02-0.144 2.05-0.219 3.11-0.869 4.33-2.53 6.89-5.28 10.2-0.448 0.558-0.896 1.12-1.36 1.69-6.46 7.98-13.1 15.5-21.1 22l-2.93 2.37c-7.36 5.84-15 10.8-23.1 15.6-0.887 0.545-1.77 1.09-2.69 1.65-8.65 5.31-17.4 9.53-26.9 13-2.57 0.999-5.01 2.07-7.51 3.24-5.54 2.48-11.3 4.03-17.1 5.57-1.14 0.302-2.28 0.604-3.46 0.915-17.1 4.42-33.8 7.15-51.4 8.35-2 0.135-2 0.135-3.91 1.23-15.9 1.1-32-0.0104-47.9-1.31-0.746-0.0589-1.49-0.118-2.26-0.178-9.04-0.727-17.8-1.92-26.7-3.83-2.79-0.592-5.56-1.07-8.37-1.49-14.3-2.58-28.3-7.83-41.8-13.2-1.53-0.597-1.53-0.597-3.09-1.21-13.1-5.27-25.3-11.6-36.9-19.8-0.884-0.598-1.77-1.2-2.68-1.81-4.75-3.24-9.18-6.64-13.4-10.5-1.4-1.25-2.87-2.43-4.36-3.57-3.56-2.96-6.22-6.4-9.08-10-1.59-1.99-3.22-3.94-4.91-5.84-6.66-7.84-10.4-16.1-14-25.7-3.1-8.1-6.44-14.5-14.6-18.3-4.75-2.42-9.05-5.16-13.4-8.25-0.583-0.412-1.17-0.823-1.77-1.25-3.63-2.62-6.77-5.44-9.86-8.69-0.862-0.9-1.72-1.8-2.61-2.73-6-6.44-11.5-13-16.4-20.3-0.396-0.582-0.791-1.16-1.2-1.76-6.69-9.93-11.6-20-15.8-31.2-0.389-1.02-0.389-1.02-0.786-2.06-3.84-10.1-6.64-20.3-8.6-30.9-0.458-2.93-0.458-2.93-1.61-5.02-1.24-8.14-1.16-16.4-1.13-24.6 0.00539-2.06 4.73e-6 -4.12-0.00635-6.18-0.0105-15.2-0.0105-15.2 2.14-22.7 1.31-4.6 1.74-9.16 2.21-13.9 0.394-3.59 0.747-5.55 2.79-8.61 0.813-2.91 1.46-5.85 2.12-8.8 0.791-2.88 1.79-5.52 3.01-8.25 0.989-2.22 1.92-4.46 2.85-6.7 6.91-16.2 6.91-16.2 13.2-22.4 2.63-2.67 4.51-5.72 6.54-8.86 4.35-6.69 4.35-6.69 8.31-8.02 0.66-0.99 1.32-1.98 2-3 2.12-1.19 2.12-1.19 4-2z" fill="#F9742B"/>
<path transform="translate(951,641)" d="m0 0c3.95-0.37 6.84 0.577 10.5 2.03 15.3 5.91 31.2 10.5 46.9 15.2 3.98 1.22 7.88 2.54 11.8 4.04 11.2 4.26 22.8 7.6 34.4 10.8 6.13 1.73 12 3.7 17.8 6.38 4.11 1.8 8.41 2.71 12.8 3.75 4.09 1.02 8.03 2.33 12 3.75 0.758 0.259 1.52 0.518 2.3 0.785 5.58 1.97 5.58 1.97 6.7 4.21 1.27 10.3-1.13 22.9-5.04 32.6-1.58 4.02-2.06 8.3-2.72 12.5-0.731 4.28-1.87 7.27-4.23 10.9-0.668 1.71-1.29 3.44-1.88 5.19-2.84 8.07-6.8 15.5-11.1 22.8-6.98-1.07-11.1-6.02-15.4-11.2-1.68-2.03-1.68-2.03-4.61-3.8v-2c-0.57-0.233-1.14-0.467-1.73-0.707-2.82-1.6-4.52-3.54-6.65-5.98-0.786-0.893-1.57-1.79-2.38-2.71-1.85-2.15-3.67-4.31-5.49-6.48-1.67-1.97-3.14-3.43-5.19-5.06-3.63-2.92-6.76-6.33-9.56-10.1v-2c-0.853-0.362-0.853-0.362-1.72-0.73-2.73-1.52-4.54-3.34-6.71-5.58-0.741-0.759-1.48-1.52-2.25-2.3-0.764-0.788-1.53-1.58-2.32-2.39-1.18-1.18-1.18-1.18-2.39-2.38-3.03-3.05-5.99-6.17-8.92-9.31-0.55-0.581-1.1-1.16-1.67-1.76-4.02-4.32-4.02-4.32-4.02-6.55-0.99-0.33-1.98-0.66-3-1-1.47-1.5-1.47-1.5-3.06-3.44-3.74-4.44-7.82-8.44-12-12.5-1.94-2.1-1.94-2.1-1.94-4.1-1.49-0.495-1.49-0.495-3-1-1.68-1.71-1.68-1.71-3.44-3.81-1.94-2.3-3.84-4.46-6-6.56-1.56-1.62-1.56-1.62-1.56-3.62-0.557-0.227-1.11-0.454-1.69-0.688-5.06-2.87-8.78-7.77-12.3-12.3v-2h-2c0.33-0.99 0.66-1.98 1-3z" fill="#FBB115"/>
<path transform="translate(926,509)" d="m0 0h2c3.33 9.02 1.6 18.2-2 27-5.31 10.6-13.8 18.8-24.9 23.1-1.5 0.491-1.5 0.491-3.04 0.992-0.999 0.333-2 0.665-3.03 1.01-5.16 1.47-10.2 2.01-15.5 2.18-1.2 0.0419-2.4 0.0838-3.63 0.127-1.24 0.0393-2.48 0.0786-3.75 0.119-1.26 0.0432-2.52 0.0864-3.82 0.131-3.1 0.106-6.2 0.208-9.3 0.307-2.18 6.21-2.33 12-2.37 18.5-0.0147 1.14-0.0295 2.28-0.0447 3.46-0.0444 3.76-0.0727 7.53-0.0972 11.3-0.0141 1.93-0.0141 1.93-0.0285 3.9-0.0377 5.41-0.0716 10.8-0.0904 16.2-0.0268 7.73-0.0846 15.5-0.186 23.2-0.0772 6.11-0.105 12.2-0.115 18.3-0.0116 2.59-0.0385 5.19-0.0809 7.78-0.0558 3.63-0.0552 7.25-0.0408 10.9-0.0438 1.61-0.0438 1.61-0.0885 3.24 0.0292 5.64 0.0292 5.64 3.14 10.1 2.38 1.63 2.38 1.63 4.85 2.9 5.48 2.94 8.77 9.73 11 15.3 2.73 9.26 4.02 19.3-0.512 28.2-2.62 3.19-5.37 4.49-9.41 5.16-6.69 0.12-11.1-0.168-16.2-4.7-2.71-2.83-5.31-5.71-7.72-8.8-0.904 0.422-1.81 0.843-2.74 1.28-1.18 0.548-2.36 1.1-3.57 1.66-1.17 0.545-2.34 1.09-3.55 1.65-10.1 4.56-24.5 4.71-35.1 1.41-3.12-1.44-3.12-1.44-5-3-0.33-0.99-0.66-1.98-1-3h-2c0.33-0.99 0.66-1.98 1-3 1.02-0.0561 1.02-0.0561 2.05-0.113 10.7-0.755 18.8-2.72 26.9-9.89 0.557-0.464 1.11-0.928 1.69-1.41 5.88-5.29 8.22-11.9 9.31-19.6 0.0924-2.16 0.137-4.32 0.145-6.48 0.0103-1.93 0.0103-1.93 0.0209-3.89 0.00271-1.41 0.00535-2.82 0.00792-4.23 0.00631-1.5 0.0131-2.99 0.0203-4.49 0.0146-3.21 0.0264-6.42 0.0359-9.64 0.0155-5.08 0.0394-10.2 0.0649-15.2 0.0711-14.4 0.131-28.9 0.182-43.3 0.0283-7.98 0.0636-16 0.107-23.9 0.0268-5.05 0.0447-10.1 0.056-15.1 0.0091-3.13 0.0264-6.27 0.0462-9.4 0.0075-1.46 0.0116-2.91 0.012-4.37 0.00108-1.98 0.0154-3.97 0.0306-5.95 0.00423-1.11 0.00846-2.22 0.0128-3.37 0.259-2.6 0.259-2.6 2.26-4.6 2.56-0.272 2.56-0.272 5.84-0.303 1.22-0.0166 2.45-0.0333 3.71-0.0504 1.34-0.00856 2.69-0.0171 4.03-0.0255 1.38-0.0162 2.75-0.0334 4.13-0.0515 3.63-0.0457 7.25-0.0805 10.9-0.112 5.79-0.0518 11.6-0.117 17.4-0.188 2.02-0.0227 4.04-0.0391 6.06-0.0547 1.23-0.0135 2.47-0.027 3.74-0.0409 1.08-0.00951 2.17-0.019 3.29-0.0288 8.39-0.413 15.1-3.45 21.9-8.14h2c0.269-0.575 0.539-1.15 0.816-1.74 1.21-2.3 2.6-4.28 4.12-6.38 3.19-4.69 4.76-9.38 6.06-14.9z" fill="#F9742A"/>
<path transform="translate(1107 573)" d="m0 0c1.32 2.39 2.05 4.47 2.69 7.13 0.22 0.917 0.441 1.83 0.668 2.78 0.218 0.95 0.436 1.9 0.66 2.88 0.233 0.95 0.467 1.9 0.707 2.88 1.73 7.37 1.73 7.37 0.543 11.6-18.7 0.0234-37.4 0.041-56.1 0.0518-8.68 0.00516-17.4 0.0122-26 0.0236-7.56 0.00997-15.1 0.0164-22.7 0.0186-4 0.0013-8.01 0.00437-12 0.0116-3.77 0.00679-7.54 0.00888-11.3 0.00738-1.38 2.75e-4 -2.77 0.00226-4.15 0.0061-1.89 0.00498-3.78 0.00318-5.67 0.00105-1.06 9.22e-4 -2.11 0.00184-3.2 0.00279-2.86-0.123-2.86-0.123-5.68-0.693-0.72-0.142-1.44-0.284-2.18-0.43-0.33 0.33-0.66 0.66-1 1-1.69 0.0721-3.38 0.0839-5.06 0.0625-0.919-0.00902-1.84-0.018-2.79-0.0273-0.71-0.0116-1.42-0.0232-2.15-0.0352 3.47-2.73 6.89-4.34 11-6 0.791-0.333 1.58-0.665 2.4-1.01 2.59-0.986 5.1-1.67 7.79-2.3 3.69-0.891 7.35-1.83 11-2.89 8.31-2.41 16.5-4.47 25.1-5.81 3.17-0.502 6.19-1.12 9.28-2.01 3.57-1.01 6.97-1.54 10.6-1.98 4.51-0.547 8.97-1.19 13.5-1.96 16.7-2.81 33.6-4.14 50.5-4.97 1.15-0.0697 2.3-0.139 3.48-0.211 1.06-0.0425 2.12-0.0849 3.21-0.129 1.4-0.0656 1.4-0.0656 2.82-0.133 2.36 0.41 2.36 0.41 4.09 2.12z" fill="#FCB215"/>
<path transform="translate(1067,704)" d="m0 0c2.68 2.43 5.03 4.95 7 8v2h2c4.42 10.8 6.31 22 1.91 33.1-2.53 5.23-6.16 9.51-9.91 13.9 0.33 0.66 0.66 1.32 1 2-1.75 0.688-1.75 0.688-4 1-2.25-1.31-2.25-1.31-4-3v-2c-0.57-0.233-1.14-0.467-1.73-0.707-2.82-1.6-4.52-3.54-6.65-5.98-0.786-0.893-1.57-1.79-2.38-2.71-1.85-2.15-3.67-4.31-5.49-6.48-1.67-1.97-3.14-3.43-5.19-5.06-3.63-2.92-6.76-6.33-9.56-10.1v-2c-0.847-0.36-0.847-0.36-1.71-0.727-2.77-1.54-4.68-3.4-6.91-5.65-0.776-0.771-1.55-1.54-2.35-2.34-1.82-2.06-2.96-3.78-4.02-6.29 0.66-0.66 1.32-1.32 2-2 0.33 0.33 0.66 0.66 1 1 0.495-0.557 0.99-1.11 1.5-1.69 13.7-12.6 31.7-14.1 47.5-4.31z" fill="#FEB936"/>
<path transform="translate(944,429)" d="m0 0c9.42 7.81 17.4 16.4 25 26 0.657 0.79 1.31 1.58 1.99 2.39 7.91 9.57 14.8 19.9 20.6 30.9 1.56 2.9 3.27 5.67 4.99 8.48 3.79 6.43 6.1 13.1 8.44 20.2 0.512 1.36 1.03 2.71 1.56 4.06 1.71 4.51 3.06 9.13 4.45 13.7 0.851 2.76 1.77 5.47 2.73 8.19 1.06 3.1 1.57 5.69 1.25 9-3.76 2.32-7.77 2.72-12.1 3.25-0.72 0.103-1.44 0.206-2.18 0.312-5.39 0.681-5.39 0.681-8.76-1.56-0.601-2.64-1.03-5.14-1.38-7.81-3.92-26.3-12-51.2-23.2-75.2-0.372-0.798-0.745-1.6-1.13-2.42-2.12-4.44-4.48-8.44-7.25-12.5-0.668-1.44-1.3-2.9-1.88-4.38-1.73-4.06-3.95-7.26-6.67-10.7-2.79-3.67-4.99-7.53-6.46-11.9z" fill="#F9742B"/>
<path transform="translate(689,624)" d="m0 0c4.05 3.8 6.12 7.56 6.38 13.1-0.0504 6.17-2.91 11.1-6.92 15.6-1.46 1.24-1.46 1.24-3.46 1.24-0.33 0.99-0.66 1.98-1 3-2.58 1.57-2.58 1.57-5.81 3.12-1.59 0.777-1.59 0.777-3.21 1.57-6.91 3.02-14.6 3.71-21.9 1.36-3.63-1.7-6.44-3.34-9.16-6.31-2.08-6.1-2.84-11.8 0.0625-17.8 5.99-10.9 13.8-14.9 25.4-18.4 7.69-2.21 13-0.822 19.6 3.44z" fill="#F9742B"/>
<path transform="translate(806 401)" d="m0 0c1.18-0.0258 2.37-0.0516 3.59-0.0781 5.08 0.48 8.31 2.13 11.8 5.77 2.38 5.21 2.37 9.93 1.62 15.6-1.5 3.31-1.5 3.31-4 6-0.536 0.596-1.07 1.19-1.62 1.8-6.12 6.15-13.1 8.11-21.6 8.25-6.31-0.357-10.4-1.37-15.4-5.43-3.38-4.18-3.85-8.38-3.31-13.6 2.88-8.58 9.19-13 17-17 3.98-1.04 7.83-1.2 11.9-1.25z" fill="#F9742B"/>
<path transform="translate(1095,584)" d="m0 0c0.625 2.88 0.625 2.88 1 6-2.82 2.82-5.66 2.42-9.44 2.56-5.36 0.212-5.36 0.212-10.6 1.44-6.21 0.421-10.3-0.501-16-3-1-1-1-1-1.06-3.56 0.0206-0.804 0.0412-1.61 0.0625-2.44 10.1-3.37 25.7-3.5 36-1z" fill="#FEB936"/>
<path transform="translate(829,693)" d="m0 0c0.465 6.39-0.31 11.6-4 17-2.75 1.06-2.75 1.06-5 1v-3c-1.32-0.66-2.64-1.32-4-2 0.287-5.88 2.91-9.06 7-13 2.49-1.25 3.41-0.777 6 0z" fill="#020202"/>
<path transform="translate(567,572)" d="m0 0c-0.33 1.65-0.66 3.3-1 5-1.98 0.66-3.96 1.32-6 2-1.12-4.75-1.12-4.75 0-7 3.13-1.04 3.99-0.934 7 0z" fill="#020202"/>
<path transform="translate(660,483)" d="m0 0c0.99 0.33 1.98 0.66 3 1-1.32 4.62-2.64 9.24-4 14-0.99-0.33-1.98-0.66-3-1 0.99-4.84 1.96-9.48 4-14z" fill="#010102"/>
<path transform="translate(967,596)" d="m0 0c-3 2-3 2-5 2v2h-10c6.25-4.69 7.61-5.21 15-4z" fill="#F9742B"/>
</svg>
